<svg xmlns="http://www.w3.org/2000/svg" viewBox="0 0 100 100">
  <!-- Background -->
  <rect width="100" height="100" rx="20" fill="#667eea"/>
  
  <!-- Calculator body -->
  <rect x="15" y="15" width="70" height="70" rx="8" fill="#2d3142"/>
  
  <!-- Display screen -->
  <rect x="22" y="22" width="56" height="18" rx="4" fill="#00ff88"/>
  
  <!-- Number buttons grid -->
  <!-- Row 1 -->
  <rect x="22" y="46" width="12" height="10" rx="2" fill="#f5f5f5"/>
  <rect x="37" y="46" width="12" height="10" rx="2" fill="#f5f5f5"/>
  <rect x="52" y="46" width="12" height="10" rx="2" fill="#f5f5f5"/>
  <rect x="67" y="46" width="11" height="10" rx="2" fill="#ff6b6b"/>
  
  <!-- Row 2 -->
  <rect x="22" y="59" width="12" height="10" rx="2" fill="#f5f5f5"/>
  <rect x="37" y="59" width="12" height="10" rx="2" fill="#f5f5f5"/>
  <rect x="52" y="59" width="12" height="10" rx="2" fill="#f5f5f5"/>
  <rect x="67" y="59" width="11" height="10" rx="2" fill="#667eea"/>
  
  <!-- Row 3 -->
  <rect x="22" y="72" width="12" height="11" rx="2" fill="#f5f5f5"/>
  <rect x="37" y="72" width="27" height="11" rx="2" fill="#51cf66"/>
  <rect x="67" y="72" width="11" height="11" rx="2" fill="#667eea"/>
</svg>
